<?xml version="1.0" encoding="UTF-8" ?>
<!DOCTYPE svg PUBLIC "-//W3C//DTD SVG 1.1//EN" "http://www.w3.org/Graphics/SVG/1.1/DTD/svg11.dtd">
<svg width="436pt" height="297pt" viewBox="-8 0 1280 910" version="1.1" xmlns="http://www.w3.org/2000/svg">
<g id="f000000ff">
<path fill="#000000" opacity="1.00" d=" M 454.86 33.83 C 543.98 -2.96 645.92 -7.36 737.91 21.46 C 815.66 45.52 885.69 92.83 938.32 154.77 C 978.60 201.94 1008.97 257.49 1027.25 316.75 C 1046.23 377.93 1052.25 443.01 1045.62 506.68 C 1066.69 506.88 1087.77 506.69 1108.84 506.78 C 1108.84 512.71 1108.85 518.64 1108.83 524.57 C 1079.88 524.56 1050.92 524.57 1021.97 524.57 C 1023.14 514.36 1025.23 504.28 1025.89 494.01 C 1031.07 429.56 1022.79 363.92 1000.59 303.12 C 976.00 235.24 934.34 173.51 880.05 125.85 C 822.39 74.91 750.15 40.38 673.97 28.94 C 623.91 21.32 572.40 23.24 523.08 34.74 C 465.84 48.01 411.76 74.29 365.54 110.53 C 306.91 156.32 260.92 217.88 232.81 286.71 C 218.56 321.45 208.85 358.03 203.79 395.23 C 196.91 394.21 190.04 393.19 183.16 392.20 C 193.63 314.09 224.29 238.70 271.87 175.83 C 318.85 113.42 382.46 63.38 454.86 33.83 Z" />
<path fill="#000000" opacity="1.00" d=" M 36.52 399.20 C 48.72 397.07 62.02 398.47 72.55 405.37 C 82.36 411.62 88.87 422.19 91.01 433.53 C 84.67 433.52 78.32 433.56 71.98 433.51 C 70.38 429.00 68.27 424.53 64.65 421.29 C 58.39 415.45 49.18 413.93 40.96 415.30 C 35.63 416.16 30.08 418.32 26.84 422.85 C 22.66 428.87 23.06 438.25 28.97 443.02 C 35.21 447.98 43.34 449.23 50.79 451.41 C 61.85 454.38 73.70 457.53 81.85 466.13 C 92.41 476.90 93.35 494.81 85.55 507.40 C 79.17 518.22 67.27 524.85 55.03 526.59 C 42.26 528.40 28.40 526.71 17.54 519.32 C 7.16 511.89 1.65 499.41 0.00 487.04 L 0.00 485.90 C 6.22 485.90 12.43 485.89 18.65 485.91 C 18.11 491.94 19.96 498.27 24.31 502.59 C 29.66 508.00 37.52 509.98 44.93 510.10 C 52.50 510.18 60.64 508.70 66.46 503.51 C 71.92 498.72 74.10 490.69 72.12 483.75 C 70.56 478.53 66.03 474.78 61.11 472.82 C 48.45 467.72 34.36 466.46 22.41 459.56 C 15.35 455.61 9.68 448.93 7.81 440.97 C 5.46 430.97 6.82 419.53 13.52 411.42 C 19.19 404.47 27.86 400.73 36.52 399.20 Z" />
<path fill="#000000" opacity="1.00" d=" M 147.38 401.38 C 159.21 401.18 171.07 401.79 182.88 401.05 C 200.18 401.73 217.53 401.23 234.86 401.38 C 234.88 406.99 234.87 412.61 234.86 418.23 C 223.72 418.25 212.58 418.21 201.43 418.24 C 193.58 508.32 213.48 600.78 258.96 679.04 C 296.60 744.33 351.63 799.69 417.42 836.60 C 477.94 870.81 547.50 888.79 617.02 888.06 C 670.03 887.67 722.93 876.53 771.58 855.48 C 837.93 826.93 896.10 780.23 939.38 722.49 C 981.43 666.64 1009.51 600.49 1021.07 531.57 C 1027.91 532.77 1034.74 534.05 1041.59 535.30 C 1027.96 617.06 992.00 695.06 938.04 758.04 C 891.02 813.20 830.27 856.80 762.43 882.52 C 716.41 900.07 667.26 909.33 618.01 909.80 C 551.32 910.60 484.52 895.11 424.98 865.04 C 354.69 829.79 294.73 774.80 252.33 708.68 C 208.54 640.73 183.35 561.06 179.56 480.34 C 178.51 459.67 178.78 438.92 180.53 418.29 C 169.50 418.18 158.47 418.24 147.44 418.26 C 147.31 412.63 147.40 407.01 147.38 401.38 Z" />
<path fill="#000000" opacity="1.00" d=" M 321.75 401.35 C 326.26 401.32 330.77 401.32 335.28 401.35 C 350.90 442.31 366.59 483.23 382.22 524.19 C 375.86 524.21 369.50 524.21 363.15 524.19 C 351.51 492.31 339.96 460.39 328.26 428.53 C 320.66 448.29 313.97 468.40 306.16 488.09 C 301.76 500.12 297.39 512.16 293.00 524.19 C 286.54 524.20 280.09 524.21 273.63 524.19 C 289.66 483.24 305.73 442.31 321.75 401.35 Z" />
<path fill="#000000" opacity="1.00" d=" M 615.34 401.35 C 641.86 401.34 668.37 401.35 694.89 401.35 C 694.91 406.96 694.90 412.58 694.90 418.20 C 674.15 418.22 653.41 418.20 632.67 418.21 C 632.65 428.82 632.65 439.44 632.67 450.06 C 651.25 450.07 669.84 450.06 688.43 450.06 C 688.45 455.68 688.45 461.30 688.43 466.92 C 669.84 466.93 651.25 466.91 632.67 466.93 C 632.66 486.00 632.64 505.08 632.68 524.16 C 626.90 524.27 621.12 524.20 615.34 524.20 C 615.34 483.25 615.34 442.30 615.34 401.35 Z" />
<path fill="#000000" opacity="1.00" d=" M 766.46 401.45 C 772.35 401.23 778.24 401.40 784.13 401.35 C 784.16 442.30 784.15 483.26 784.14 524.21 C 778.27 524.22 772.40 524.22 766.54 524.21 C 766.48 483.29 766.62 442.37 766.46 401.45 Z" />
<path fill="#000000" opacity="1.00" d=" M 869.01 401.35 C 895.43 401.40 921.86 401.25 948.29 401.42 C 948.22 407.22 948.28 413.01 948.25 418.81 C 927.71 418.83 907.16 418.80 886.62 418.82 C 886.60 430.05 886.61 441.27 886.61 452.50 C 905.20 452.53 923.79 452.50 942.38 452.52 C 942.39 458.34 942.39 464.16 942.38 469.98 C 923.79 469.99 905.20 469.97 886.61 469.99 C 886.61 482.25 886.58 494.50 886.63 506.76 C 908.54 506.74 930.45 506.75 952.36 506.76 C 952.37 512.57 952.37 518.39 952.36 524.21 C 924.57 524.22 896.79 524.22 869.00 524.21 C 868.98 483.26 868.97 442.30 869.01 401.35 Z" />
<path fill="#000000" opacity="1.00" d=" M 1174.91 401.34 C 1191.26 401.49 1207.64 400.90 1223.97 401.91 C 1232.50 402.40 1241.22 404.63 1247.97 410.12 C 1260.15 419.74 1266.19 435.14 1268.27 450.14 C 1270.42 466.87 1268.64 484.60 1260.65 499.67 C 1255.54 509.14 1247.67 517.64 1237.43 521.48 C 1228.36 524.77 1218.55 524.40 1209.05 524.52 C 1197.65 524.48 1186.24 524.66 1174.85 524.43 C 1174.97 483.40 1174.85 442.37 1174.91 401.34 M 1192.52 418.80 C 1192.51 448.22 1192.51 477.64 1192.52 507.06 C 1204.47 506.81 1216.58 507.87 1228.40 505.59 C 1236.92 504.07 1242.85 496.75 1246.27 489.28 C 1251.76 477.10 1252.55 463.19 1250.42 450.12 C 1248.66 440.62 1245.06 430.81 1237.55 424.35 C 1233.02 420.36 1226.84 419.14 1220.99 418.97 C 1211.50 418.70 1202.01 418.83 1192.52 418.80 Z" />
<path fill="#000000" opacity="1.00" d=" M 447.71 401.67 C 463.47 401.66 479.23 401.69 494.99 401.60 C 503.68 401.77 512.99 401.62 520.68 406.29 C 528.30 410.51 533.28 418.42 535.12 426.79 C 537.67 438.06 536.61 450.89 529.31 460.25 C 523.96 467.31 515.27 470.84 506.75 472.18 C 518.87 489.51 531.00 506.84 543.09 524.19 C 535.76 524.21 528.43 524.20 521.10 524.20 C 509.42 507.15 497.83 490.05 486.12 473.02 C 479.18 473.06 472.25 473.01 465.31 473.05 C 465.33 490.20 465.32 507.36 465.32 524.52 C 459.45 524.54 453.58 524.54 447.70 524.51 C 447.71 483.57 447.69 442.62 447.71 401.67 M 465.32 418.21 C 465.32 430.77 465.32 443.33 465.32 455.89 C 475.22 455.88 485.13 455.91 495.03 455.94 C 501.08 455.55 507.80 455.75 512.84 451.84 C 517.91 447.93 519.14 440.99 518.64 434.96 C 518.31 429.50 515.90 423.80 511.02 420.94 C 507.14 418.47 502.41 418.39 497.96 418.29 C 487.08 418.13 476.20 418.22 465.32 418.21 Z" />
</g>
</svg>
